<svg xmlns="http://www.w3.org/2000/svg" width="53.87" height="43.61" viewBox="0 0 512 512" version="1.1"><path d="M 300.500 350.478 C 290.861 352.266, 280.635 354.985, 259.140 361.476 C 223.011 372.387, 209.423 374.985, 188.426 374.994 C 180.984 374.997, 171.292 374.309, 165.926 373.396 C 157.070 371.889, 152.411 370.464, 127.500 361.641 C 110.539 355.634, 98.888 353.660, 80 353.593 C 67.752 353.550, 61.310 353.999, 55 355.333 C 42.868 357.900, 29.724 362.476, 20.745 367.259 C 11.812 372.018, 11.981 370.758, 18.429 384.500 C 46.540 444.418, 111.082 489.706, 190.799 505.449 C 217.888 510.798, 225.414 511.460, 259 511.443 C 286.500 511.430, 292.278 511.149, 304.500 509.227 C 363.113 500.014, 413.153 476.769, 451.265 441.052 C 465.446 427.762, 480.184 408.609, 489.781 391 C 494.659 382.048, 502.556 362.973, 503.510 357.834 L 504.191 354.168 498.461 353.452 C 486.549 351.963, 480.182 353.494, 450.500 364.985 C 425.359 374.718, 410.964 373.921, 378.500 361 C 363.229 354.922, 354.876 352.461, 343 350.543 C 331.600 348.701, 310.259 348.669, 300.500 350.478" stroke="none" fill="#eab148" fill-rule="evenodd"/><path d="M 255 1.192 C 255 4.164, 246.143 16.798, 238.226 25.117 C 217.711 46.675, 197.908 59.704, 147.095 85.077 C 104.167 106.512, 82.076 121.728, 58.462 146.128 C 28.241 177.353, 10.535 212.507, 2.872 256.500 C 1.376 265.088, 0.637 274.652, 0.272 290.136 C -0.272 313.249, 0.658 325.611, 4.172 341.977 C 6.314 351.949, 11.549 368.945, 12.895 370.293 C 13.330 370.729, 17.019 369.293, 21.093 367.100 C 29.681 362.478, 42.883 357.897, 55 355.333 C 61.310 353.999, 67.752 353.550, 80 353.593 C 98.888 353.660, 110.539 355.634, 127.500 361.641 C 152.411 370.464, 157.070 371.889, 165.926 373.396 C 171.292 374.309, 180.984 374.997, 188.426 374.994 C 209.450 374.985, 223.140 372.364, 259.140 361.459 C 291.946 351.522, 299.662 349.884, 316.519 349.283 C 339.571 348.460, 353.709 351.132, 378.500 361 C 395.522 367.775, 403.018 369.905, 413.934 371.068 C 426.163 372.370, 435.386 370.836, 450.500 364.985 C 475.493 355.310, 480.322 353.826, 488.500 353.314 C 492.900 353.038, 498.353 353.243, 500.619 353.770 L 504.737 354.728 506.807 346.114 C 507.946 341.376, 509.400 333.450, 510.039 328.500 C 510.678 323.550, 511.606 318.719, 512.101 317.764 C 513.250 315.545, 513.289 273.703, 512.141 274.413 C 511.669 274.704, 510.990 271.469, 510.632 267.222 C 509.647 255.530, 505.596 237.481, 500.605 222.544 C 486.538 180.447, 458.824 144.458, 418 115.275 C 403.915 105.207, 391.972 98.434, 360 82.382 C 316.759 60.674, 296.791 47.631, 277.510 28.500 C 268.059 19.122, 259.122 7.366, 257.555 2.250 C 256.833 -0.105, 255 -0.865, 255 1.192 M 0.426 296.500 C 0.427 308.600, 0.571 313.413, 0.747 307.195 C 0.923 300.977, 0.922 291.077, 0.746 285.195 C 0.569 279.313, 0.425 284.400, 0.426 296.500" stroke="none" fill="#a1430b" fill-rule="evenodd"/></svg>